<?xml version="1.0" encoding="utf-8"?>
<!-- Generator: Adobe Illustrator 23.0.0, SVG Export Plug-In . SVG Version: 6.00 Build 0)  -->
<svg version="1.1" xmlns="http://www.w3.org/2000/svg" xmlns:xlink="http://www.w3.org/1999/xlink" x="0px" y="0px"
	 viewBox="0 0 600 600" style="enable-background:new 0 0 600 600;" xml:space="preserve">
<style type="text/css">
	.st0{enable-background:new    ;}
	.st1{fill:#D6D6D6;}
	.st2{fill:#A6A4A5;}
</style>
<g id="圆角矩形_1_拷贝_1_" class="st0">
	<g id="圆角矩形_1_拷贝">
		<g>
			<path class="st1" d="M300,366.7c25.9,0,46.9,21,46.9,46.9V506h-93.8v-92.4C253.1,387.8,274.1,366.7,300,366.7 M300,322.7
				c-50.2,0-90.9,40.7-90.9,90.9V550h181.8V413.6C390.9,363.4,350.2,322.7,300,322.7L300,322.7z"/>
		</g>
	</g>
</g>
<g id="矩形_1_拷贝_8_1_" class="st0">
	<g id="矩形_1_拷贝_8">
		<g>
			<path class="st2" d="M299.9,100.8l204.4,117.7L486,506H114L95.7,218.4L299.9,100.8 M299.9,50L50,193.9L72.7,550h454.5L550,193.9
				L299.9,50L299.9,50z"/>
		</g>
	</g>
</g>
</svg>
