<?xml version="1.0" encoding="utf-8"?>
<!-- Generator: Adobe Illustrator 23.0.0, SVG Export Plug-In . SVG Version: 6.00 Build 0)  -->
<svg version="1.1" id="椭圆_2_拷贝_6_1_" xmlns="http://www.w3.org/2000/svg" xmlns:xlink="http://www.w3.org/1999/xlink"
	 x="0px" y="0px" viewBox="0 0 600 600" style="enable-background:new 0 0 600 600;" xml:space="preserve">
<style type="text/css">
	.st0{fill:#A6A4A5;}
</style>
<g id="椭圆_2_拷贝_6">
	<g>
		<path class="st0" d="M300.4,94c28.7,0,55.7,11.2,76,31.4c20.3,20.3,31.5,47.2,31.5,75.8s-11.2,55.6-31.5,75.8
			c-20.3,20.3-47.3,31.4-76,31.4s-55.7-11.2-76-31.4c-20.3-20.3-31.5-47.2-31.5-75.8s11.2-55.6,31.5-75.8
			C244.7,105.2,271.7,94,300.4,94 M300.4,404.1c22.2,0,43.9,3.9,64.5,11.6c19.9,7.5,38.2,18.3,54.4,32.1c18.8,16,34.1,35.6,45,57.3
			H136.5c10.9-21.7,26.1-41.3,45-57.3c16.2-13.9,34.6-24.7,54.4-32.1C256.5,408.1,278.2,404.1,300.4,404.1 M300.4,50
			c-83.7,0-151.5,67.7-151.5,151.3c0,83.6,67.8,151.3,151.5,151.3s151.5-67.7,151.5-151.3C451.9,117.7,384.1,50,300.4,50L300.4,50z
			 M300.4,360.1c-112.6,0-206.1,81.8-224.1,189.1h448.2C506.5,441.9,413,360.1,300.4,360.1L300.4,360.1z"/>
	</g>
</g>
</svg>
